PathFileType	4	(X/Y/Z)	OpenSim_Sub03_CSStiffKnee_Magnet.trc
DataRate	CameraRate	NumFrames	NumMarkers	Units	OrigDataRate	OrigDataStartFrame	OrigNumFrames
100	100	37	8	m	100	455	3637
Frame#	Time	torso_imu_offset_imu	pelvis_imu_offset_imu	tibia_r_imu_offset_imu	femur_r_imu_offset_imu	tibia_l_imu_offset_imu	femur_l_imu_offset_imu	toes_r_imu_offset_imu	toes_l_imu_offset_imu
				X1	Y1	Z1	X2	Y2	Z2	X3	Y3	Z3	X4	Y4	Z4	X5	Y5	Z5	X6	Y6	Z6	X7	Y7	Z7	X8		Y8	Z8	

455	4.54000000	-0.89746100	-0.24511700	0.24194300	-0.69873000	0.28564500	-0.63671900	-0.68505900	-0.46142600	-0.14965800	-0.74609400	-0.44775400	-0.18725600	-0.58715800	0.50170900	0.37719700	-0.58349600	0.38037100	0.48461900	-0.63085900	-0.16284200	-0.53027300	-0.77392600	-0.16162100	-0.30053700
456	4.55000000	-0.90185500	-0.24292000	0.25073200	-0.69873000	0.28588900	-0.64819300	-0.69189500	-0.44897500	-0.15673800	-0.75024400	-0.45385700	-0.18945300	-0.58740200	0.51049800	0.37670900	-0.58569300	0.38476600	0.48901400	-0.62475600	-0.15649400	-0.53247100	-0.77587900	-0.16601600	-0.29834000
457	4.56000000	-0.89965800	-0.24072300	0.24609400	-0.69873000	0.28369100	-0.65063500	-0.69848600	-0.43847700	-0.15942400	-0.74609400	-0.45190400	-0.18261700	-0.58300800	0.51489300	0.37646500	-0.57714800	0.39135700	0.48437500	-0.61889600	-0.14428700	-0.53466800	-0.77856400	-0.15722700	-0.30297900
458	4.57000000	-0.89575200	-0.23437500	0.24804700	-0.69189500	0.27539100	-0.65014600	-0.70507800	-0.42822300	-0.15747100	-0.74585000	-0.46020500	-0.18701200	-0.57641600	0.51928700	0.37622100	-0.57299800	0.39794900	0.48657200	-0.61718800	-0.13403300	-0.53906200	-0.77880900	-0.15283200	-0.29834000
459	4.58000000	-0.89550800	-0.24072300	0.24853500	-0.69409200	0.27758800	-0.65258800	-0.70556600	-0.41772500	-0.16015600	-0.74389600	-0.45605500	-0.18237300	-0.57226600	0.52807600	0.37793000	-0.56884800	0.40454100	0.48217800	-0.60888700	-0.12963900	-0.54321300	-0.77661100	-0.15063500	-0.28710900
460	4.59000000	-0.89794900	-0.23022500	0.25024400	-0.69409200	0.27758800	-0.65502900	-0.70336900	-0.41772500	-0.16015600	-0.74365200	-0.45800800	-0.17334000	-0.56811500	0.53466800	0.37304700	-0.56030300	0.41113300	0.49096700	-0.61108400	-0.12573200	-0.53906200	-0.78344700	-0.14624000	-0.29394500
461	4.60000000	-0.90014600	-0.23022500	0.24804700	-0.69189500	0.27124000	-0.65478500	-0.71606400	-0.41357400	-0.15576200	-0.74169900	-0.46020500	-0.17309600	-0.57031200	0.53686500	0.37524400	-0.56274400	0.42431600	0.48413100	-0.60693400	-0.12548800	-0.54541000	-0.78564500	-0.14428700	-0.27587900
462	4.61000000	-0.90014600	-0.22802700	0.25219700	-0.69799800	0.26709000	-0.65698200	-0.71215800	-0.40942400	-0.15380900	-0.74365200	-0.46020500	-0.17089800	-0.56152300	0.54565400	0.37695300	-0.55835000	0.41992200	0.48632800	-0.60278300	-0.12744100	-0.54516600	-0.79028300	-0.14209000	-0.28271500
463	4.62000000	-0.90454100	-0.22387700	0.25439500	-0.68920900	0.26074200	-0.65429700	-0.70752000	-0.41552700	-0.15795900	-0.74169900	-0.45385700	-0.16650400	-0.56201200	0.55444300	0.37207000	-0.56079100	0.43066400	0.48852500	-0.60693400	-0.12353500	-0.54321300	-0.79272500	-0.13989300	-0.27612300
464	4.63000000	-0.90039100	-0.22387700	0.25219700	-0.68945300	0.26489300	-0.65918000	-0.71386700	-0.41357400	-0.15136700	-0.74609400	-0.44995100	-0.16210900	-0.55102500	0.56103500	0.36938500	-0.55444300	0.43310500	0.48168900	-0.61108400	-0.12768600	-0.54126000	-0.79492200	-0.13549800	-0.27612300
465	4.64000000	-0.90234400	-0.22607400	0.25439500	-0.68505900	0.26293900	-0.65918000	-0.70727500	-0.42407200	-0.15112300	-0.74389600	-0.45190400	-0.15966800	-0.55346700	0.56982400	0.36889600	-0.55004900	0.43969700	0.48608400	-0.61303700	-0.13598600	-0.52856400	-0.79736300	-0.13110400	-0.26709000
466	4.65000000	-0.90454100	-0.22387700	0.25219700	-0.68481400	0.25659200	-0.65893600	-0.70068400	-0.43432600	-0.14404300	-0.74609400	-0.45410200	-0.15039100	-0.55151400	0.58081100	0.36621100	-0.55029300	0.44165000	0.48388700	-0.62109400	-0.14624000	-0.51586900	-0.80419900	-0.12915000	-0.26489300
467	4.66000000	-0.90039100	-0.22168000	0.25854500	-0.68261700	0.25439500	-0.65869100	-0.69824200	-0.44482400	-0.13696300	-0.74169900	-0.45825200	-0.15258800	-0.53833000	0.58740200	0.36572300	-0.53955100	0.45483400	0.48364300	-0.62939500	-0.14648400	-0.50146500	-0.80883800	-0.12255900	-0.26269500
468	4.67000000	-0.90258800	-0.21752900	0.26074200	-0.67822300	0.25244100	-0.65869100	-0.69604500	-0.45336900	-0.12548800	-0.74389600	-0.45410200	-0.14599600	-0.53198200	0.59643600	0.35839800	-0.53979500	0.46142600	0.48144500	-0.63525400	-0.15673800	-0.49926800	-0.80712900	-0.11377000	-0.24926800
469	4.68000000	-0.90258800	-0.21972700	0.25195300	-0.67407200	0.25244100	-0.66577100	-0.68920900	-0.46582000	-0.12280300	-0.74414100	-0.45190400	-0.13671900	-0.52978500	0.60083000	0.36035200	-0.54003900	0.46362300	0.48584000	-0.64770500	-0.16113300	-0.48877000	-0.81811500	-0.11401400	-0.23803700
470	4.69000000	-0.90258800	-0.21557600	0.25170900	-0.67602500	0.24829100	-0.66772500	-0.68481400	-0.47192400	-0.11816400	-0.74218800	-0.44775400	-0.13916000	-0.52563500	0.61181600	0.35546900	-0.53588900	0.47021500	0.46997100	-0.64965800	-0.17138700	-0.47607400	-0.82055700	-0.11401400	-0.23584000
471	4.70000000	-0.90478500	-0.21972700	0.25195300	-0.67822300	0.25463900	-0.67285200	-0.67602500	-0.48877000	-0.10180700	-0.74829100	-0.44775400	-0.14160200	-0.51684600	0.61401400	0.34619100	-0.53588900	0.47680700	0.48339800	-0.65356400	-0.18164100	-0.47168000	-0.82519500	-0.10986300	-0.21093800
472	4.71000000	-0.90698200	-0.21337900	0.25390600	-0.67211900	0.25878900	-0.66357400	-0.66918900	-0.50341800	-0.08789100	-0.75073200	-0.43750000	-0.13745100	-0.51489300	0.62719700	0.34326200	-0.53173800	0.48339800	0.47900400	-0.66381800	-0.18798800	-0.46142600	-0.82275400	-0.11206100	-0.20214800
473	4.72000000	-0.90478500	-0.21557600	0.24951200	-0.66992200	0.26098600	-0.67065400	-0.66503900	-0.50561500	-0.07226600	-0.74267600	-0.42724600	-0.12866200	-0.50854500	0.63378900	0.33837900	-0.52539100	0.48559600	0.47216800	-0.67602500	-0.19653300	-0.45922900	-0.82959000	-0.11206100	-0.18627900
474	4.73000000	-0.90478500	-0.21557600	0.24511700	-0.66796900	0.26733400	-0.66845700	-0.65600600	-0.52441400	-0.05810500	-0.75122100	-0.42309600	-0.11962900	-0.50219700	0.64697300	0.33105500	-0.52758800	0.48999000	0.47216800	-0.67773400	-0.20678700	-0.45068400	-0.83154300	-0.11669900	-0.16821300
475	4.74000000	-0.90698200	-0.21557600	0.25170900	-0.67431600	0.26098600	-0.66137700	-0.65161100	-0.53051800	-0.04687500	-0.74902300	-0.42504900	-0.11254900	-0.49560500	0.65600600	0.31713900	-0.52343800	0.49853500	0.46289100	-0.68383800	-0.21704100	-0.45263700	-0.83618200	-0.11474600	-0.14575200
476	4.75000000	-0.90258800	-0.21752900	0.24292000	-0.66992200	0.26293900	-0.66601600	-0.64111300	-0.53491200	-0.03979500	-0.74658200	-0.43750000	-0.11206100	-0.48486300	0.66479500	0.31860400	-0.53027300	0.50293000	0.46069300	-0.68164100	-0.22314500	-0.45263700	-0.83813500	-0.12133800	-0.12793000
477	4.76000000	-0.90698200	-0.21752900	0.24292000	-0.66577100	0.26098600	-0.66821300	-0.63867200	-0.54321300	-0.02172900	-0.74438500	-0.44384800	-0.10278300	-0.47387700	0.66918900	0.30493200	-0.53051800	0.50952100	0.45385700	-0.69213900	-0.22119100	-0.45459000	-0.83618200	-0.11474600	-0.11206100
478	4.77000000	-0.90698200	-0.21752900	0.24511700	-0.66577100	0.26318400	-0.66845700	-0.63208000	-0.55151400	-0.01464800	-0.74389600	-0.45825200	-0.09985400	-0.46533200	0.68457000	0.30615200	-0.53515600	0.51367200	0.44946300	-0.70019500	-0.23144500	-0.46069300	-0.84497100	-0.11718800	-0.07836900
479	4.78000000	-0.90478500	-0.21972700	0.23657200	-0.66162100	0.26928700	-0.66626000	-0.62597700	-0.54956100	-0.01489300	-0.74169900	-0.46460000	-0.09057600	-0.45654300	0.69335900	0.31030300	-0.54394500	0.51586900	0.43359400	-0.69580100	-0.23950200	-0.45849600	-0.84301800	-0.10864300	-0.04931600
480	4.79000000	-0.90258800	-0.21752900	0.24072300	-0.66381800	0.26928700	-0.66870100	-0.62963900	-0.55981400	-0.01001000	-0.73950200	-0.47070300	-0.09252900	-0.44335900	0.70214800	0.30297900	-0.54834000	0.51147500	0.42919900	-0.70410200	-0.23974600	-0.46289100	-0.83886700	-0.10205100	-0.02905300
481	4.80000000	-0.90454100	-0.22192400	0.23877000	-0.65747100	0.27368200	-0.66870100	-0.61914100	-0.56201200	-0.00537100	-0.74121100	-0.47900400	-0.08325200	-0.43457000	0.70654300	0.30712900	-0.56396500	0.51757800	0.42236300	-0.70800800	-0.24389600	-0.46484400	-0.84350600	-0.09570300	-0.00878900
482	4.81000000	-0.90893600	-0.22192400	0.23437500	-0.65942400	0.26953100	-0.67089800	-0.62304700	-0.57031200	-0.00293000	-0.73486300	-0.48510700	-0.08520500	-0.41699200	0.71533200	0.30859400	-0.56787100	0.50463900	0.42041000	-0.71630900	-0.25219700	-0.46484400	-0.84399400	-0.08276400	0.02026400
483	4.82000000	-0.91088900	-0.22607400	0.24121100	-0.66186500	0.27563500	-0.67358400	-0.61694300	-0.56835900	-0.00512700	-0.72631800	-0.48925800	-0.08032200	-0.40136700	0.71752900	0.31274400	-0.56762700	0.50024400	0.42041000	-0.71826200	-0.25219700	-0.46484400	-0.84887700	-0.06958000	0.04272500
484	4.83000000	-0.90673800	-0.22192400	0.24096700	-0.66162100	0.26733400	-0.67089800	-0.61669900	-0.57446300	0.00390600	-0.72998000	-0.50585900	-0.07519500	-0.39038100	0.72412100	0.32568400	-0.58496100	0.49121100	0.42504900	-0.72656200	-0.25024400	-0.46679700	-0.84912100	-0.06762700	0.06738300
485	4.84000000	-0.90478500	-0.21557600	0.24072300	-0.66162100	0.26953100	-0.67553700	-0.60815400	-0.57861300	0.00195300	-0.72143600	-0.51196300	-0.07959000	-0.37036100	0.73095700	0.32519500	-0.58886700	0.47607400	0.42065400	-0.72876000	-0.24829100	-0.46484400	-0.84301800	-0.05004900	0.08544900
486	4.85000000	-0.90673800	-0.22192400	0.23877000	-0.66796900	0.26293900	-0.66381800	-0.60595700	-0.58276400	0.00195300	-0.71679700	-0.52661100	-0.07666000	-0.35058600	0.73974600	0.32446300	-0.59960900	0.46508800	0.41406200	-0.73486300	-0.25244100	-0.46679700	-0.84326200	-0.04126000	0.10546900
487	4.86000000	-0.91113300	-0.22192400	0.24316400	-0.66577100	0.26318400	-0.67529300	-0.61425800	-0.58276400	-0.00244100	-0.71240200	-0.53881800	-0.08300800	-0.33715800	0.74414100	0.33081100	-0.61230500	0.45190400	0.41870100	-0.74121100	-0.25048800	-0.47119100	-0.84594700	-0.03051800	0.12133800
488	4.87000000	-0.90673800	-0.22192400	0.24536100	-0.66137700	0.26098600	-0.66821300	-0.60376000	-0.58691400	-0.00463900	-0.70996100	-0.55127000	-0.07568400	-0.32177700	0.75073200	0.32788100	-0.61645500	0.44531200	0.41650400	-0.74755900	-0.25048800	-0.46704100	-0.84130900	-0.03491200	0.14160200
489	4.88000000	-0.90918000	-0.21557600	0.24731400	-0.66137700	0.26318400	-0.67065400	-0.60791000	-0.58691400	-0.00903300	-0.70141600	-0.55737300	-0.08007800	-0.31298800	0.75952100	0.32519500	-0.62475600	0.42993200	0.42797900	-0.74731400	-0.25463900	-0.46264600	-0.84521500	-0.05029300	0.14379900
490	4.89000000	-0.90478500	-0.21557600	0.25390600	-0.66333000	0.25463900	-0.66796900	-0.60571300	-0.58911100	0.00219700	-0.69677700	-0.56567400	-0.07739300	-0.29980500	0.76171900	0.31591800	-0.63330100	0.42114300	0.43042000	-0.75781200	-0.25268600	-0.46704100	-0.83862300	-0.04589800	0.14599600
491	4.90000000	-0.90478500	-0.21557600	0.25170900	-0.66503900	0.24414100	-0.66992200	-0.60131800	-0.59326200	0.00000000	-0.69213900	-0.58227500	-0.07226600	-0.29711900	0.75512700	0.33203100	-0.63964800	0.41674800	0.41918900	-0.76196300	-0.25683600	-0.46899400	-0.84057600	-0.05712900	0.15283200
